<svg width="120" height="120" viewBox="0 0 120 120" fill="none" xmlns="http://www.w3.org/2000/svg">
<g clip-path="url(#clip0_5770_372698)">
<rect width="120" height="120" rx="60" fill="#EFF4FF"/>
<path d="M70.3639 92.1472C60.8185 88.6017 51.0003 88.0563 42.0003 90.5109C35.7276 92.1472 29.7276 95.4199 24.273 99.5108L20.4548 102.784L19.3639 103.874L21.8184 106.056C22.0911 106.056 22.0912 106.329 22.3639 106.602C22.9094 107.147 23.4549 107.42 24.273 107.965L25.9093 109.056L27.5457 107.693C27.8184 107.42 28.3639 106.874 28.9093 106.602C33.8184 102.511 39.273 99.7836 45.0002 98.4199C52.3639 96.5108 60.273 96.7836 68.1821 99.7836C74.7275 102.238 88.0912 105.238 104.182 98.4199L104.728 98.1472L105.546 97.329C105.546 97.0563 105.818 97.0563 106.091 96.7836C107.455 95.1472 108.818 93.5108 109.909 91.6018L115.364 83.1472L106.637 88.0563C93.8184 95.1472 82.0912 96.5108 70.3639 92.1472Z" fill="#155EEF"/>
<path d="M33 62.6935C40.3637 60.7844 48.2728 61.0571 56.1818 64.0571C64.9091 67.3298 87.2728 71.9662 112.364 49.3299L116.455 45.239L116.727 44.9662L117.818 43.8753L117.273 42.5117C117 41.4208 116.455 40.0572 115.909 38.6935L114.545 34.8753L111.818 37.6025C111.545 38.148 111 38.4207 110.455 38.9662C98.4545 51.2389 79.9091 63.7844 58.6364 56.148C49.0909 52.6026 39.2728 52.0571 30.2728 54.5117C21.5455 56.9662 13.9091 61.6026 6.81819 68.148V67.8753L2.72728 72.2389C2.72728 72.5117 2.45461 72.5117 2.18188 72.7844L1.36365 73.6026L1.63639 74.6935C1.90912 76.0571 2.45456 77.4207 2.72728 78.7844L4.36366 83.148L7.09094 79.6026C7.36366 79.0572 7.9091 78.7844 8.18183 78.239C13.9091 73.0572 21.8182 65.6935 33 62.6935Z" fill="#155EEF"/>
<path d="M6.54552 57.7844C12.8182 51.239 19.9091 47.148 27.5455 44.9662C34.9091 43.0571 42.8182 43.3298 50.7273 46.3298C75.2727 55.3298 96.5455 40.6026 105.818 32.6935L109.364 29.1481L110.727 28.0571L109.636 26.4208C108.818 25.6026 108.273 24.5117 107.455 23.4208L105.818 21.2389L103.909 23.148C103.636 23.4208 103.091 23.9662 102.818 24.2389C91.3637 35.148 73.6364 46.3299 53.4546 38.6935C43.9091 35.1481 34.0909 34.6026 25.0909 37.0571C19.3637 38.6935 13.9091 41.4208 8.45456 44.9662L2.72727 49.6026C2.18182 50.1481 1.90909 50.4208 1.36364 50.9662L0.818232 51.5116V52.3299C0.545504 54.239 0.545471 56.1481 0.272744 57.7844L0 64.6026L4.6364 59.6935C5.18185 59.148 5.72734 58.3299 6.54552 57.7844Z" fill="#155EEF"/>
<path d="M78.2724 110.693L77.7269 112.33L78.2724 110.693C77.4542 110.421 76.9088 110.148 76.0906 109.875C66.5451 106.33 56.7269 105.784 47.7269 108.239C45.8178 108.784 43.9088 109.33 41.9997 110.148L35.4542 113.148L33.8179 113.966L39.2724 115.875C40.9088 116.421 42.5451 116.966 44.1815 117.511L44.9996 117.784L45.8179 117.511C46.636 117.239 47.4542 116.693 48.2724 116.693C48.8178 116.693 49.3633 116.421 49.9088 116.148C56.4542 114.511 63.5451 114.511 71.1815 116.966C71.9996 117.239 72.5451 117.511 73.3633 117.784L74.727 118.33L75.5451 118.057C77.4542 117.511 79.636 116.966 81.2724 116.148L88.9087 113.421L80.9997 111.511C80.1815 111.239 79.0906 110.966 78.2724 110.693Z" fill="#155EEF"/>
<path d="M120 54.2392L115.909 58.3301C115.364 58.8755 114.818 59.421 114.273 59.9665C103.091 70.6028 85.091 82.0573 64.9092 74.421C55.3638 70.8755 45.5456 70.3301 36.5456 72.7847C28.091 75.2392 20.4546 79.6028 13.6364 86.1483L10.091 89.9665L9.00012 91.3301L10.091 92.9665C10.9092 94.0574 11.4547 94.8756 12.0001 95.9665L13.6364 98.421L15.5456 95.9665C15.8183 95.6938 16.3637 95.1482 16.6365 94.8755C23.1819 87.7846 30.2728 83.421 38.4546 81.2392C45.8183 79.3301 53.7274 79.6028 61.6364 82.6028C68.4546 85.0573 75.5456 85.8756 82.6365 85.0574C95.1819 83.6938 107.727 76.6029 117 68.6938C117.546 68.1483 118.091 67.8756 118.636 67.3301L119.455 66.5119V65.6937C119.455 64.0574 119.727 62.1483 119.727 60.5119L120 54.2392Z" fill="#155EEF"/>
<path d="M16.3641 29.1488L15.5459 27.5124L16.3641 29.1488C18.0004 28.3306 19.9096 27.7851 21.546 27.2397C28.9096 25.3306 36.8187 25.6033 44.7278 28.6033C49.9096 30.5124 55.0914 31.3306 60.8187 31.3306C72.2732 31.3306 83.7277 27.2397 94.3641 19.3306L98.455 16.0579L99.8186 14.967L97.3641 13.0578C96.5459 12.2397 95.455 11.4215 94.3641 10.876L92.7277 9.78516L91.3641 10.876C90.8186 11.1488 90.5459 11.6942 90.0004 11.9669C75.5459 22.876 61.0914 25.8761 47.4551 20.6942C37.6369 17.1488 27.8186 16.3306 18.0005 19.3306C17.1823 19.6033 16.3641 19.876 15.2732 20.1488L14.7278 20.4215L13.9096 21.2397C13.9096 21.5124 13.6369 21.5124 13.3641 21.7851C12.2732 23.4215 10.9096 24.7852 9.81864 26.4215L4.63684 34.3306L13.0914 29.967C14.455 29.967 15.5459 29.4215 16.3641 29.1488Z" fill="#155EEF"/>
<path d="M38.7273 10.6022L39.5455 10.875C43.0909 12.2386 48.5455 13.6022 55.3637 13.6022C62.4546 13.6022 69.2728 11.9659 76.091 9.23859L84.5455 5.14768L78.8182 3.23864C77.1819 2.69318 75.5455 2.14773 73.6364 1.875H72.8182L72.0001 2.14766C71.1819 2.42039 70.3636 2.96591 69.5455 3.23864C61.3636 6.23864 53.1818 6.78409 45.2727 4.60227C44.4546 4.32955 43.6364 4.05677 42.8182 3.78404L42.0001 3.5113L41.1818 3.78404C39.5455 4.3295 37.9091 4.87498 36.2728 5.69317L30 8.42044L36.5455 10.3295C37.091 10.0568 37.9091 10.3295 38.7273 10.6022Z" fill="#155EEF"/>
</g>
<defs>
<clipPath id="clip0_5770_372698">
<rect width="120" height="120" rx="60" fill="white"/>
</clipPath>
</defs>
</svg>
