<svg width="174" height="40" viewBox="0 0 174 40" fill="none" xmlns="http://www.w3.org/2000/svg">
<path d="M57.0966 29H52.5625L58.4517 11.5455H64.0682L69.9574 29H65.4233L61.3239 15.9432H61.1875L57.0966 29ZM56.4915 22.1307H65.9688V25.3352H56.4915V22.1307ZM79.5646 33.9091V26.8778H79.4794C79.3033 27.2812 79.0533 27.6591 78.7294 28.0114C78.4055 28.3636 77.9993 28.6477 77.5107 28.8636C77.0277 29.0795 76.4567 29.1875 75.7976 29.1875C74.8317 29.1875 73.9538 28.9375 73.1641 28.4375C72.3743 27.9375 71.7436 27.1875 71.272 26.1875C70.8004 25.1875 70.5646 23.946 70.5646 22.4631C70.5646 20.9233 70.8089 19.6562 71.2976 18.6619C71.7862 17.6676 72.4254 16.9318 73.2152 16.4545C74.0107 15.9773 74.8658 15.7386 75.7805 15.7386C76.468 15.7386 77.0561 15.858 77.5447 16.0966C78.0334 16.3295 78.4368 16.6307 78.755 17C79.0732 17.3693 79.3146 17.7528 79.4794 18.1506H79.6072V15.9091H83.7322V33.9091H79.5646ZM77.2464 25.9403C77.7521 25.9403 78.1839 25.7983 78.5419 25.5142C78.8999 25.2244 79.1754 24.8182 79.3686 24.2955C79.5618 23.7727 79.6584 23.1591 79.6584 22.4545C79.6584 21.7386 79.5618 21.1222 79.3686 20.6051C79.1811 20.0881 78.9055 19.6903 78.5419 19.4119C78.1839 19.1335 77.7521 18.9943 77.2464 18.9943C76.7294 18.9943 76.2919 19.1364 75.9339 19.4205C75.576 19.7045 75.3033 20.1051 75.1158 20.6222C74.9339 21.1392 74.843 21.75 74.843 22.4545C74.843 23.1591 74.9368 23.7727 75.1243 24.2955C75.3118 24.8182 75.5817 25.2244 75.9339 25.5142C76.2919 25.7983 76.7294 25.9403 77.2464 25.9403ZM94.8139 23.3494V15.9091H98.973V29H95.0014V26.5625H94.8651C94.5753 27.3636 94.081 28 93.3821 28.4716C92.6889 28.9375 91.8509 29.1705 90.8679 29.1705C89.9759 29.1705 89.1918 28.9659 88.5156 28.5568C87.8395 28.1477 87.3139 27.5767 86.9389 26.8438C86.5639 26.1051 86.3736 25.2415 86.3679 24.2528V15.9091H90.5355V23.4347C90.5412 24.1449 90.7287 24.7045 91.098 25.1136C91.4673 25.5227 91.9702 25.7273 92.6065 25.7273C93.0213 25.7273 93.3935 25.6364 93.723 25.4545C94.0582 25.267 94.3224 24.9972 94.5156 24.6449C94.7145 24.2869 94.8139 23.8551 94.8139 23.3494ZM105.316 29.2216C104.481 29.2216 103.739 29.0824 103.092 28.804C102.45 28.5199 101.941 28.0937 101.566 27.5256C101.197 26.9517 101.012 26.233 101.012 25.3693C101.012 24.642 101.14 24.0284 101.396 23.5284C101.651 23.0284 102.004 22.6222 102.452 22.3097C102.901 21.9972 103.418 21.7614 104.004 21.6023C104.589 21.4375 105.214 21.3267 105.879 21.2699C106.623 21.2017 107.222 21.1307 107.677 21.0568C108.131 20.9773 108.461 20.8665 108.665 20.7244C108.876 20.5767 108.981 20.3693 108.981 20.1023V20.0597C108.981 19.6222 108.83 19.2841 108.529 19.0455C108.228 18.8068 107.822 18.6875 107.31 18.6875C106.759 18.6875 106.316 18.8068 105.981 19.0455C105.646 19.2841 105.433 19.6136 105.342 20.0341L101.498 19.8977C101.612 19.1023 101.904 18.392 102.376 17.767C102.853 17.1364 103.506 16.642 104.336 16.2841C105.171 15.9205 106.174 15.7386 107.344 15.7386C108.18 15.7386 108.95 15.8381 109.654 16.0369C110.359 16.2301 110.972 16.5142 111.495 16.8892C112.018 17.2585 112.421 17.7131 112.705 18.2528C112.995 18.7926 113.14 19.4091 113.14 20.1023V29H109.219V27.1761H109.117C108.884 27.6193 108.586 27.9943 108.222 28.3011C107.864 28.608 107.441 28.8381 106.952 28.9915C106.469 29.1449 105.924 29.2216 105.316 29.2216ZM106.603 26.4943C107.052 26.4943 107.455 26.4034 107.813 26.2216C108.177 26.0398 108.467 25.7898 108.683 25.4716C108.898 25.1477 109.006 24.7727 109.006 24.3466V23.1023C108.887 23.1648 108.742 23.2216 108.572 23.2727C108.407 23.3239 108.225 23.3722 108.026 23.4176C107.827 23.4631 107.623 23.5028 107.413 23.5369C107.202 23.571 107.001 23.6023 106.808 23.6307C106.415 23.6932 106.08 23.7898 105.802 23.9205C105.529 24.0511 105.319 24.2216 105.171 24.4318C105.029 24.6364 104.958 24.8807 104.958 25.1648C104.958 25.5966 105.112 25.9261 105.418 26.1534C105.731 26.3807 106.126 26.4943 106.603 26.4943ZM118.654 29L113.575 11.5455H118.237L120.87 22.983H121.015L124.023 11.5455H127.825L130.833 23.0085H130.978L133.62 11.5455H138.273L133.202 29H129.137L125.992 18.4148H125.856L122.711 29H118.654ZM140.016 29V15.9091H144.184V29H140.016ZM142.104 14.3835C141.519 14.3835 141.016 14.1903 140.596 13.804C140.175 13.4119 139.965 12.9403 139.965 12.3892C139.965 11.8437 140.175 11.3778 140.596 10.9915C141.016 10.5994 141.519 10.4034 142.104 10.4034C142.695 10.4034 143.198 10.5994 143.613 10.9915C144.033 11.3778 144.244 11.8437 144.244 12.3892C144.244 12.9403 144.033 13.4119 143.613 13.804C143.198 14.1903 142.695 14.3835 142.104 14.3835ZM158.266 19.9062L154.439 20.0085C154.399 19.7358 154.291 19.4943 154.115 19.2841C153.939 19.0682 153.709 18.9006 153.425 18.7812C153.146 18.6562 152.822 18.5938 152.453 18.5938C151.97 18.5938 151.558 18.6903 151.217 18.8835C150.882 19.0767 150.717 19.3381 150.723 19.6676C150.717 19.9233 150.82 20.1449 151.03 20.3324C151.246 20.5199 151.629 20.6705 152.18 20.7841L154.703 21.2614C156.01 21.5114 156.982 21.9261 157.618 22.5057C158.26 23.0852 158.584 23.8523 158.589 24.8068C158.584 25.7045 158.317 26.4858 157.788 27.1506C157.266 27.8153 156.55 28.3324 155.641 28.7017C154.732 29.0653 153.692 29.2472 152.521 29.2472C150.652 29.2472 149.178 28.8636 148.098 28.0966C147.024 27.3239 146.411 26.2898 146.257 24.9943L150.374 24.892C150.464 25.3693 150.7 25.733 151.081 25.983C151.462 26.233 151.947 26.358 152.538 26.358C153.072 26.358 153.507 26.2585 153.842 26.0597C154.178 25.8608 154.348 25.5966 154.354 25.267C154.348 24.9716 154.217 24.7358 153.962 24.5597C153.706 24.3778 153.305 24.2358 152.76 24.1335L150.476 23.6989C149.163 23.4602 148.186 23.0199 147.544 22.3778C146.902 21.7301 146.584 20.9062 146.589 19.9062C146.584 19.0312 146.817 18.2841 147.288 17.6648C147.76 17.0398 148.43 16.5625 149.3 16.233C150.169 15.9034 151.195 15.7386 152.376 15.7386C154.149 15.7386 155.547 16.1108 156.57 16.8551C157.592 17.5937 158.158 18.6108 158.266 19.9062ZM166.761 29.2472C165.391 29.2472 164.21 28.9773 163.215 28.4375C162.227 27.892 161.465 27.1165 160.931 26.1108C160.403 25.0994 160.138 23.8977 160.138 22.5057C160.138 21.1534 160.406 19.9716 160.94 18.9602C161.474 17.9432 162.227 17.1534 163.198 16.5909C164.17 16.0227 165.315 15.7386 166.633 15.7386C167.565 15.7386 168.417 15.8835 169.19 16.1733C169.962 16.4631 170.63 16.892 171.192 17.4602C171.755 18.0284 172.192 18.7301 172.505 19.5653C172.817 20.3949 172.974 21.3466 172.974 22.4205V23.4602H161.596V21.0398H169.096C169.09 20.5966 168.985 20.2017 168.781 19.8551C168.576 19.5085 168.295 19.2386 167.937 19.0455C167.585 18.8466 167.178 18.7472 166.718 18.7472C166.252 18.7472 165.835 18.8523 165.465 19.0625C165.096 19.267 164.803 19.5483 164.587 19.9062C164.371 20.2585 164.258 20.6591 164.246 21.108V23.571C164.246 24.1051 164.352 24.5739 164.562 24.9773C164.772 25.375 165.07 25.6847 165.457 25.9062C165.843 26.1278 166.303 26.2386 166.837 26.2386C167.207 26.2386 167.542 26.1875 167.843 26.0852C168.144 25.983 168.403 25.8324 168.619 25.6335C168.835 25.4347 168.996 25.1903 169.104 24.9006L172.931 25.0114C172.772 25.8693 172.423 26.6165 171.883 27.2528C171.349 27.8835 170.647 28.375 169.778 28.7273C168.908 29.0739 167.903 29.2472 166.761 29.2472Z" fill="black"/>
<path d="M23.4546 30.7157C20.2728 29.5339 17.0001 29.3521 14.0001 30.1703C11.9092 30.7157 9.90915 31.8066 8.09097 33.1703L6.81822 34.2612L6.45459 34.6248L7.27277 35.3521C7.36368 35.3521 7.36369 35.443 7.4546 35.5339C7.63641 35.7157 7.81824 35.8066 8.09097 35.9885L8.6364 36.3521L9.18186 35.8975C9.27277 35.8066 9.45459 35.6248 9.63641 35.5339C11.2728 34.1703 13.0909 33.2612 15 32.8066C17.4546 32.1703 20.0909 32.2612 22.7273 33.2612C24.9091 34.0794 29.3637 35.0794 34.7273 32.8066L34.9092 32.7157L35.1819 32.443C35.1819 32.3521 35.2728 32.3521 35.3637 32.2612C35.8182 31.7157 36.2728 31.1703 36.6364 30.5339L38.4546 27.7157L35.5455 29.3521C31.2728 31.7157 27.3637 32.1703 23.4546 30.7157Z" fill="#155EEF"/>
<path d="M11 20.8978C13.4546 20.2615 16.091 20.3524 18.7273 21.3524C21.6364 22.4433 29.091 23.9887 37.4546 16.4433L38.8182 15.0797L38.9091 14.9887L39.2728 14.6251L39.0909 14.1706C39 13.8069 38.8182 13.3524 38.6364 12.8978L38.1819 11.6251L37.2728 12.5342C37.1819 12.716 37 12.8069 36.8182 12.9887C32.8182 17.0796 26.6364 21.2615 19.5455 18.716C16.3637 17.5342 13.091 17.3524 10.091 18.1706C7.18187 18.9887 4.63641 20.5342 2.27277 22.716V22.6251L0.909135 24.0796C0.909135 24.1706 0.818243 24.1706 0.727334 24.2615L0.45459 24.5342L0.545504 24.8978C0.636414 25.3524 0.818226 25.8069 0.909135 26.2615L1.4546 27.716L2.36369 26.5342C2.4546 26.3524 2.63641 26.2615 2.72732 26.0797C4.63641 24.3524 7.27278 21.8978 11 20.8978Z" fill="#155EEF"/>
<path d="M2.18184 19.2615C4.27275 17.0797 6.63637 15.716 9.18182 14.9887C11.6364 14.3524 14.2727 14.4433 16.9091 15.4433C25.0909 18.4433 32.1818 13.5342 35.2727 10.8978L36.4545 9.71602L36.9091 9.35236L36.5455 8.80693C36.2727 8.5342 36.0909 8.17056 35.8182 7.80692L35.2727 7.07963L34.6364 7.71601C34.5455 7.80692 34.3636 7.98873 34.2727 8.07964C30.4546 11.716 24.5455 15.4433 17.8182 12.8978C14.6364 11.716 11.3636 11.5342 8.36365 12.3524C6.45456 12.8978 4.63637 13.8069 2.81819 14.9887L0.909091 16.5342C0.727273 16.716 0.636364 16.8069 0.454545 16.9887L0.272744 17.1705V17.4433C0.181835 18.0797 0.181824 18.716 0.0909146 19.2615L0 21.5342L1.54547 19.8978C1.72728 19.716 1.90911 19.4433 2.18184 19.2615Z" fill="#155EEF"/>
<path d="M26.0908 36.8978L25.9089 37.4432L26.0908 36.8978C25.818 36.8068 25.6362 36.7159 25.3635 36.625C22.1817 35.4432 18.9089 35.2614 15.9089 36.0796C15.2726 36.2614 14.6362 36.4432 13.9999 36.7159L11.818 37.7159L11.2726 37.9886L13.0908 38.625C13.6362 38.8068 14.1817 38.9887 14.7271 39.1705L14.9998 39.2614L15.2726 39.1705C15.5453 39.0796 15.818 38.8977 16.0908 38.8977C16.2726 38.8977 16.4544 38.8068 16.6362 38.7159C18.818 38.1705 21.1817 38.1705 23.7271 38.9887C23.9998 39.0796 24.1817 39.1705 24.4544 39.2614L24.9089 39.4432L25.1817 39.3523C25.818 39.1705 26.5453 38.9887 27.0908 38.7159L29.6362 37.8068L26.9998 37.1705C26.7271 37.0796 26.3635 36.9887 26.0908 36.8978Z" fill="#155EEF"/>
<path d="M40 18.0797L38.6363 19.4434C38.4545 19.6252 38.2727 19.807 38.0909 19.9888C34.3636 23.5343 28.3636 27.3524 21.6364 24.807C18.4545 23.6252 15.1818 23.4434 12.1818 24.2616C9.36364 25.0797 6.81817 26.5343 4.54544 28.7161L3.36363 29.9888L3 30.4434L3.36363 30.9888C3.63636 31.3525 3.81819 31.6252 4.00001 31.9888L4.54544 32.807L5.18181 31.9888C5.27272 31.8979 5.45453 31.7161 5.54544 31.6252C7.72726 29.2615 10.0909 27.807 12.8182 27.0797C15.2727 26.4434 17.9091 26.5343 20.5454 27.5343C22.8182 28.3524 25.1818 28.6252 27.5455 28.3525C31.7273 27.8979 35.9091 25.5343 39 22.8979C39.1818 22.7161 39.3636 22.6252 39.5454 22.4434L39.8182 22.1706V21.8979C39.8182 21.3525 39.9091 20.7161 39.9091 20.1706L40 18.0797Z" fill="#155EEF"/>
<path d="M5.45473 9.71627L5.18202 9.17081L5.45473 9.71627C6.00019 9.44354 6.63657 9.26171 7.18203 9.07989C9.63657 8.44353 12.2729 8.53444 14.9093 9.53444C16.6366 10.1708 18.3638 10.4435 20.2729 10.4435C24.0911 10.4435 27.9093 9.0799 31.4547 6.44354L32.8184 5.35262L33.2729 4.98899L32.4547 4.35261C32.182 4.07988 31.8184 3.80717 31.4547 3.62535L30.9093 3.26172L30.4547 3.62535C30.2729 3.71626 30.182 3.89807 30.0002 3.98898C25.182 7.62534 20.3638 8.62535 15.8184 6.89808C12.5457 5.71626 9.27292 5.44354 6.00019 6.44354C5.72747 6.53445 5.45474 6.62534 5.0911 6.71625L4.9093 6.80717L4.63656 7.07988C4.63656 7.17079 4.54567 7.1708 4.45476 7.26171C4.09112 7.80717 3.63656 8.26172 3.27292 8.80718L1.54565 11.4435L4.36384 9.98899C4.81839 9.98899 5.18201 9.80718 5.45473 9.71627Z" fill="#155EEF"/>
<path d="M12.9091 3.53407L13.1818 3.62499C14.3636 4.07953 16.1818 4.53408 18.4546 4.53408C20.8182 4.53408 23.0909 3.98862 25.3637 3.07953L28.1818 1.71589L26.2727 1.07955C25.7273 0.897727 25.1818 0.715909 24.5455 0.625H24.2727L24 0.715887C23.7273 0.806796 23.4545 0.988636 23.1818 1.07955C20.4545 2.07955 17.7273 2.26136 15.0909 1.53409C14.8182 1.44318 14.5455 1.35226 14.2727 1.26135L14 1.17043L13.7273 1.26135C13.1818 1.44317 12.6364 1.62499 12.0909 1.89772L10 2.80681L12.1818 3.44316C12.3637 3.35225 12.6364 3.44317 12.9091 3.53407Z" fill="#155EEF"/>
</svg>
